# File created by Blade
# Date/Time:  Wed Sep 24 19:42:34 2014
# Frame Rate: 120.000 fps
#------------------------------------------------------
:FULLY-SPECIFIED
:DEGREES
795
root -4.910607 33.015924 -3.129439 7.394987 6.094914 -2.737338
Spine -15.924202 14.746812 -6.055016
Head 9.190075 -25.612253 10.916001
LeftShoulder -7.969029 19.092189 11.275936
LeftArm 24.288359 36.254732 -68.130703
LeftForeArm -1.348079 -0.000000 21.831568
LeftHand -23.770511 -0.000000 -8.226454
LeftHandThumb1 -26.253704 0.000000 33.147579
RightShoulder -81.183110 67.021537 -135.695048
RightArm -5.290070 20.708983 50.684828
RightForeArm 38.671312 0.000000 32.510951
RightHand -9.493858 -0.000000 -17.865481
RightHandThumb1 -24.326973 -0.000000 -32.862282
LeftUpLeg -2.149365 2.399967 7.380269
LeftLeg -2.038769 -0.000000 0.000000
LeftFoot -7.955529 4.006218 -18.853713
LeftToeBase 10.176976 -0.000000 -0.000000
RightUpLeg -2.807481 -11.539335 1.641963
RightLeg 1.229798 -0.000000 -0.000000
RightFoot -6.005294 -4.104787 -14.625476
RightToeBase 0.226300 -0.000000 -0.000000
796
root -4.908483 33.015963 -3.131424 7.388512 6.073381 -2.726128
Spine -15.900077 14.759526 -6.058064
Head 9.157148 -25.582728 10.875916
LeftShoulder -7.976384 19.149168 11.254463
LeftArm 24.296121 36.280161 -68.063635
LeftForeArm -1.403966 -0.000000 21.786022
LeftHand -23.917075 -0.000000 -8.195735
LeftHandThumb1 -26.253704 0.000000 33.147579
RightShoulder -79.927286 67.092773 -134.130049
RightArm -4.837558 21.022603 50.667932
RightForeArm 38.743833 -0.000000 33.310731
RightHand -9.338016 -0.000000 -17.603925
RightHandThumb1 -24.326973 -0.000000 -32.862282
LeftUpLeg -2.152535 2.386003 7.364429
LeftLeg -2.015886 -0.000000 0.000000
LeftFoot -7.957123 4.046435 -18.837325
LeftToeBase 10.076774 -0.000000 -0.000000
RightUpLeg -2.814656 -11.535696 1.625033
RightLeg 1.250547 -0.000000 -0.000000
RightFoot -6.017028 -4.101447 -14.628900
RightToeBase 0.222383 -0.000000 -0.000000
797
root -4.907281 33.015149 -3.135123 7.394557 6.059989 -2.729795
Spine -15.881277 14.770786 -6.047542
Head 9.098118 -25.559576 10.848405
LeftShoulder -7.972832 19.148171 11.261106
LeftArm 24.216692 36.289681 -68.083140
LeftForeArm -1.414475 -0.000000 21.760559
LeftHand -23.830603 0.000000 -8.341435
LeftHandThumb1 -26.253704 0.000000 33.147579
RightShoulder -78.649745 67.151258 -132.554459
RightArm -4.395493 21.320833 50.613065
RightForeArm 38.933083 -0.000000 34.119591
RightHand -9.154797 -0.000000 -17.252607
RightHandThumb1 -24.326973 -0.000000 -32.862282
LeftUpLeg -2.176788 2.354237 7.366963
LeftLeg -1.983562 -0.000000 0.000000
LeftFoot -8.002664 4.073503 -18.847274
LeftToeBase 10.122927 -0.000000 -0.000000
RightUpLeg -2.838636 -11.524281 1.628360
RightLeg 1.269658 -0.000000 -0.000000
RightFoot -6.019479 -4.110281 -14.624704
RightToeBase 0.191770 -0.000000 -0.000000
798
root -4.904239 33.015055 -3.137768 7.399547 6.032286 -2.725384
Spine -15.875442 14.797359 -6.042495
Head 9.062390 -25.514346 10.805447
LeftShoulder -7.972071 19.184048 11.254332
LeftArm 24.171836 36.294112 -68.086225
LeftForeArm -1.372952 -0.000000 21.720264
LeftHand -23.753354 -0.000000 -8.381310
LeftHandThumb1 -26.253704 0.000000 33.147579
RightShoulder -77.216729 67.187682 -130.811813
RightArm -3.900903 21.610370 50.575119
RightForeArm 39.123658 0.000000 34.924206
RightHand -8.952586 -0.000000 -16.961696
RightHandThumb1 -24.326973 -0.000000 -32.862282
LeftUpLeg -2.187683 2.333468 7.356788
LeftLeg -1.963265 -0.000000 0.000000
LeftFoot -8.030647 4.102281 -18.857146
LeftToeBase 10.150649 -0.000000 -0.000000
RightUpLeg -2.858270 -11.496886 1.615133
RightLeg 1.291728 -0.000000 -0.000000
RightFoot -6.035507 -4.104777 -14.635824
RightToeBase 0.232073 -0.000000 -0.000000
799
root -4.902418 33.014617 -3.139060 7.397976 6.006078 -2.726139
Spine -15.860699 14.830868 -6.034598
Head 9.014490 -25.476453 10.767903
LeftShoulder -7.974742 19.243066 11.243307
LeftArm 24.166300 36.290149 -68.059779
LeftForeArm -1.353673 -0.000000 21.706921
LeftHand -23.772633 -0.000000 -8.414942
LeftHandThumb1 -26.253704 0.000000 33.147579
RightShoulder -75.929570 67.200103 -129.235539
RightArm -3.496465 21.892729 50.540035
RightForeArm 39.399149 0.000000 35.831357
RightHand -8.735026 -0.000000 -16.742345
RightHandThumb1 -24.326973 -0.000000 -32.862282
LeftUpLeg -2.189855 2.314256 7.354276
LeftLeg -1.946082 -0.000000 0.000000
LeftFoot -8.061586 4.139660 -18.854771
LeftToeBase 10.128681 -0.000000 -0.000000
RightUpLeg -2.870374 -11.485571 1.608946
RightLeg 1.310369 -0.000000 -0.000000
RightFoot -6.051564 -4.096755 -14.630908
RightToeBase 0.215101 -0.000000 -0.000000
